<?xml version="1.0" encoding="UTF-8" standalone="no"?>
<svg
   class="marks"
   width="1047.5"
   height="902"
   viewBox="0 0 1047.5 902"
   version="1.1"
   id="svg176"
   sodipodi:docname="visualization.svg"
   inkscape:export-filename="visualization.png"
   inkscape:export-xdpi="96"
   inkscape:export-ydpi="96"
   inkscape:version="1.2.2 (732a01da63, 2022-12-09)"
   xmlns:inkscape="http://www.inkscape.org/namespaces/inkscape"
   xmlns:sodipodi="http://sodipodi.sourceforge.net/DTD/sodipodi-0.dtd"
   xmlns="http://www.w3.org/2000/svg"
   xmlns:svg="http://www.w3.org/2000/svg">
  <defs
     id="defs180" />
  <sodipodi:namedview
     id="namedview178"
     pagecolor="#ffffff"
     bordercolor="#000000"
     borderopacity="0.25"
     inkscape:showpageshadow="2"
     inkscape:pageopacity="0.0"
     inkscape:pagecheckerboard="0"
     inkscape:deskcolor="#d1d1d1"
     showgrid="false"
     inkscape:zoom="0.6"
     inkscape:cx="404.16667"
     inkscape:cy="450"
     inkscape:window-width="1440"
     inkscape:window-height="829"
     inkscape:window-x="-8"
     inkscape:window-y="-8"
     inkscape:window-maximized="1"
     inkscape:current-layer="svg176" />
  <rect
     style="fill:#ffffff;fill-opacity:1"
     id="rect461"
     width="1046.6666"
     height="903.33331"
     x="0"
     y="0" />
  <g
     transform="translate(0,0)"
     id="g174">
    <g
       class="mark-group role-frame root"
       id="g172">
      <g
         transform="translate(0,0)"
         id="g170">
        <path
           class="background"
           d="M0,0h1047.5v902h-1047.5Z"
           style="fill: none;"
           id="path2" />
        <g
           id="g168">
          <g
             class="mark-path role-mark"
             style="pointer-events: none;"
             id="g70">
            <path
               transform="translate(0,0)"
               d="M107.51490288819812,521.9788301599945C107.51490288819812,414.00452617655327 195.5072351512056,414.00452617655327 195.5072351512056,306.0302221931121"
               style="fill: none; stroke: #ccc; stroke-width: 0.5;"
               id="path4" />
            <path
               transform="translate(0,0)"
               d="M195.5181718922662,377.9937771595128C195.5181718922662,342.0119996763124 195.5072351512056,342.0119996763124 195.5072351512056,306.0302221931121"
               style="fill: none; stroke: #ccc; stroke-width: 0.5;"
               id="path6" />
            <path
               transform="translate(0,0)"
               d="M369.48611950715235,377.9939799257149C369.48611950715235,342.01210105941345 195.5072351512056,342.01210105941345 195.5072351512056,306.0302221931121"
               style="fill: none; stroke: #ccc; stroke-width: 0.5;"
               id="path8" />
            <path
               transform="translate(0,0)"
               d="M476.506485382972,881.8740967499674C476.506485382972,809.9475361169691 256.5327589117346,809.9475361169691 256.5327589117346,738.0209754839709"
               style="fill: none; stroke: #ccc; stroke-width: 0.5;"
               id="path10" />
            <path
               transform="translate(0,0)"
               d="M301.5328441170394,810.006710952674C301.5328441170394,774.0138432183224 256.5327589117346,774.0138432183224 256.5327589117346,738.0209754839709"
               style="fill: none; stroke: #ccc; stroke-width: 0.5;"
               id="path12" />
            <path
               transform="translate(0,0)"
               d="M476.506485382972,881.8740967499674C476.506485382972,521.9917249627241 514.4956823300481,521.9917249627241 514.4956823300481,162.10935317548086"
               style="fill: none; stroke: #ccc; stroke-width: 0.5;"
               id="path14" />
            <path
               transform="translate(0,0)"
               d="M402.51411221286725,233.9990627081582C402.51411221286725,198.05420794181953 514.4956823300481,198.05420794181953 514.4956823300481,162.10935317548086"
               style="fill: none; stroke: #ccc; stroke-width: 0.5;"
               id="path16" />
            <path
               transform="translate(0,0)"
               d="M350.5084067279298,594.0341363199586C350.5084067279298,522.0235625245308 369.4971664831679,522.0235625245308 369.4971664831679,450.0129887291029"
               style="fill: none; stroke: #ccc; stroke-width: 0.5;"
               id="path18" />
            <path
               transform="translate(0,0)"
               d="M476.506485382972,881.8740967499674C476.506485382972,737.9541165349631 350.5084067279298,737.9541165349631 350.5084067279298,594.0341363199586"
               style="fill: none; stroke: #ccc; stroke-width: 0.5;"
               id="path20" />
            <path
               transform="translate(0,0)"
               d="M226.52757545937047,666.0159967958185C226.52757545937047,630.0250665578885 350.5084067279298,630.0250665578885 350.5084067279298,594.0341363199586"
               style="fill: none; stroke: #ccc; stroke-width: 0.5;"
               id="path22" />
            <path
               transform="translate(0,0)"
               d="M476.506485382972,881.8740967499674C476.506485382972,845.9404038513208 301.5328441170394,845.9404038513208 301.5328441170394,810.006710952674"
               style="fill: none; stroke: #ccc; stroke-width: 0.5;"
               id="path24" />
            <path
               transform="translate(0,0)"
               d="M476.506485382972,881.8740967499674C476.506485382972,773.945046772893 226.52757545937047,773.945046772893 226.52757545937047,666.0159967958185"
               style="fill: none; stroke: #ccc; stroke-width: 0.5;"
               id="path26" />
            <path
               transform="translate(0,0)"
               d="M256.5327589117346,738.0209754839709C256.5327589117346,702.0184861398948 226.52757545937047,702.0184861398948 226.52757545937047,666.0159967958185"
               style="fill: none; stroke: #ccc; stroke-width: 0.5;"
               id="path28" />
            <path
               transform="translate(0,0)"
               d="M107.56603380551411,594.0448696295773C107.56603380551411,558.0118498947859 107.51490288819812,558.0118498947859 107.51490288819812,521.9788301599945"
               style="fill: none; stroke: #ccc; stroke-width: 0.5;"
               id="path30" />
            <path
               transform="translate(0,0)"
               d="M476.506485382972,881.8740967499674C476.506485382972,737.9594831897723 107.56603380551411,737.9594831897723 107.56603380551411,594.0448696295773"
               style="fill: none; stroke: #ccc; stroke-width: 0.5;"
               id="path32" />
            <path
               transform="translate(0,0)"
               d="M226.52757545937047,666.0159967958185C226.52757545937047,630.030433212698 107.56603380551411,630.030433212698 107.56603380551411,594.0448696295773"
               style="fill: none; stroke: #ccc; stroke-width: 0.5;"
               id="path34" />
            <path
               transform="translate(0,0)"
               d="M476.506485382972,881.8740967499674C476.506485382972,593.969710346625 385.49551251064884,593.969710346625 385.49551251064884,306.0653239432826"
               style="fill: none; stroke: #ccc; stroke-width: 0.5;"
               id="path36" />
            <path
               transform="translate(0,0)"
               d="M195.5181718922662,377.9937771595128C195.5181718922662,342.0295505513977 385.49551251064884,342.0295505513977 385.49551251064884,306.0653239432826"
               style="fill: none; stroke: #ccc; stroke-width: 0.5;"
               id="path38" />
            <path
               transform="translate(0,0)"
               d="M369.48611950715235,377.9939799257149C369.48611950715235,342.0296519344987 385.49551251064884,342.0296519344987 385.49551251064884,306.0653239432826"
               style="fill: none; stroke: #ccc; stroke-width: 0.5;"
               id="path40" />
            <path
               transform="translate(0,0)"
               d="M107.51490288819812,521.9788301599945C107.51490288819812,485.99009701607895 184.49073614841643,485.99009701607895 184.49073614841643,450.0013638721635"
               style="fill: none; stroke: #ccc; stroke-width: 0.5;"
               id="path42" />
            <path
               transform="translate(0,0)"
               d="M514.4956823300481,162.10935317548086C514.4956823300481,126.07425641608324 644.5042535389364,126.07425641608324 644.5042535389364,90.03915965668563"
               style="fill: none; stroke: #ccc; stroke-width: 0.5;"
               id="path44" />
            <path
               transform="translate(0,0)"
               d="M802.4772305558056,162.0595344228049C802.4772305558056,126.04934703974526 644.5042535389364,126.04934703974526 644.5042535389364,90.03915965668563"
               style="fill: none; stroke: #ccc; stroke-width: 0.5;"
               id="path46" />
            <path
               transform="translate(0,0)"
               d="M644.4596453127101,450.036739212864C644.4596453127101,270.0379494347748 644.5042535389364,270.0379494347748 644.5042535389364,90.03915965668563"
               style="fill: none; stroke: #ccc; stroke-width: 0.5;"
               id="path48" />
            <path
               transform="translate(0,0)"
               d="M385.49551251064884,306.0653239432826C385.49551251064884,270.0321933257204 402.51411221286725,270.0321933257204 402.51411221286725,233.9990627081582"
               style="fill: none; stroke: #ccc; stroke-width: 0.5;"
               id="path50" />
            <path
               transform="translate(0,0)"
               d="M369.4971664831679,450.0129887291029C369.4971664831679,414.0034843274089 369.48611950715235,414.0034843274089 369.48611950715235,377.9939799257149"
               style="fill: none; stroke: #ccc; stroke-width: 0.5;"
               id="path52" />
            <path
               transform="translate(0,0)"
               d="M184.49073614841643,450.0013638721635C184.49073614841643,413.9975705158381 195.5181718922662,413.9975705158381 195.5181718922662,377.9937771595128"
               style="fill: none; stroke: #ccc; stroke-width: 0.5;"
               id="path54" />
            <path
               transform="translate(0,0)"
               d="M695.4504302834972,810.0068553685194C695.4504302834972,774.0128276842597 695.5000000000985,774.0128276842597 695.5000000000985,738.0188"
               style="fill: none; stroke: #ccc; stroke-width: 0.5;"
               id="path56" />
            <path
               transform="translate(0,0)"
               d="M832.4107712862547,665.9796610995447C832.4107712862547,414.0195977611748 802.4772305558056,414.0195977611748 802.4772305558056,162.0595344228049"
               style="fill: none; stroke: #ccc; stroke-width: 0.5;"
               id="path58" />
            <path
               transform="translate(0,0)"
               d="M476.506485382972,881.8740967499674C476.506485382972,845.9557250982982 927.265486086915,845.9557250982982 927.265486086915,810.037353446629"
               style="fill: none; stroke: #ccc; stroke-width: 0.5;"
               id="path60" />
            <path
               transform="translate(0,0)"
               d="M476.506485382972,881.8740967499674C476.506485382972,665.9554179814157 644.4596453127101,665.9554179814157 644.4596453127101,450.036739212864"
               style="fill: none; stroke: #ccc; stroke-width: 0.5;"
               id="path62" />
            <path
               transform="translate(0,0)"
               d="M644.5042535389364,90.03915965668563C644.5042535389364,54.03087775181921 644.5000022228072,54.03087775181921 644.5000022228072,18.0225958469528"
               style="fill: none; stroke: #ccc; stroke-width: 0.5;"
               id="path64" />
            <path
               transform="translate(0,0)"
               d="M476.506485382972,881.8740967499674C476.506485382972,845.9404760592433 695.4504302834972,845.9404760592433 695.4504302834972,810.0068553685194"
               style="fill: none; stroke: #ccc; stroke-width: 0.5;"
               id="path66" />
            <path
               transform="translate(0,0)"
               d="M476.506485382972,881.8740967499674C476.506485382972,773.926878924756 832.4107712862547,773.926878924756 832.4107712862547,665.9796610995447"
               style="fill: none; stroke: #ccc; stroke-width: 0.5;"
               id="path68" />
          </g>
          <g
             class="mark-symbol role-mark nodes"
             id="g118">
            <path
               transform="translate(476.506485382972,881.8740967499674)"
               d="M5,0A5,5,0,1,1,-5,0A5,5,0,1,1,5,0"
               style="fill: #3182bd;"
               id="path72" />
            <path
               transform="translate(195.5072351512056,306.0302221931121)"
               d="M5,0A5,5,0,1,1,-5,0A5,5,0,1,1,5,0"
               style="fill: #6baed6;"
               id="path74" />
            <path
               transform="translate(256.5327589117346,738.0209754839709)"
               d="M5,0A5,5,0,1,1,-5,0A5,5,0,1,1,5,0"
               style="fill: #9ecae1;"
               id="path76" />
            <path
               transform="translate(514.4956823300481,162.10935317548086)"
               d="M5,0A5,5,0,1,1,-5,0A5,5,0,1,1,5,0"
               style="fill: #c6dbef;"
               id="path78" />
            <path
               transform="translate(369.4971664831679,450.0129887291029)"
               d="M5,0A5,5,0,1,1,-5,0A5,5,0,1,1,5,0"
               style="fill: #e6550d;"
               id="path80" />
            <path
               transform="translate(350.5084067279298,594.0341363199586)"
               d="M5,0A5,5,0,1,1,-5,0A5,5,0,1,1,5,0"
               style="fill: #fd8d3c;"
               id="path82" />
            <path
               transform="translate(301.5328441170394,810.006710952674)"
               d="M5,0A5,5,0,1,1,-5,0A5,5,0,1,1,5,0"
               style="fill: #fdae6b;"
               id="path84" />
            <path
               transform="translate(226.52757545937047,666.0159967958185)"
               d="M5,0A5,5,0,1,1,-5,0A5,5,0,1,1,5,0"
               style="fill: #fdd0a2;"
               id="path86" />
            <path
               transform="translate(107.51490288819812,521.9788301599945)"
               d="M5,0A5,5,0,1,1,-5,0A5,5,0,1,1,5,0"
               style="fill: #31a354;"
               id="path88" />
            <path
               transform="translate(107.56603380551411,594.0448696295773)"
               d="M5,0A5,5,0,1,1,-5,0A5,5,0,1,1,5,0"
               style="fill: #74c476;"
               id="path90" />
            <path
               transform="translate(385.49551251064884,306.0653239432826)"
               d="M5,0A5,5,0,1,1,-5,0A5,5,0,1,1,5,0"
               style="fill: #a1d99b;"
               id="path92" />
            <path
               transform="translate(184.49073614841643,450.0013638721635)"
               d="M5,0A5,5,0,1,1,-5,0A5,5,0,1,1,5,0"
               style="fill: #c7e9c0;"
               id="path94" />
            <path
               transform="translate(644.5042535389364,90.03915965668563)"
               d="M5,0A5,5,0,1,1,-5,0A5,5,0,1,1,5,0"
               style="fill: #756bb1;"
               id="path96" />
            <path
               transform="translate(402.51411221286725,233.9990627081582)"
               d="M5,0A5,5,0,1,1,-5,0A5,5,0,1,1,5,0"
               style="fill: #9e9ac8;"
               id="path98" />
            <path
               transform="translate(369.48611950715235,377.9939799257149)"
               d="M5,0A5,5,0,1,1,-5,0A5,5,0,1,1,5,0"
               style="fill: #bcbddc;"
               id="path100" />
            <path
               transform="translate(195.5181718922662,377.9937771595128)"
               d="M5,0A5,5,0,1,1,-5,0A5,5,0,1,1,5,0"
               style="fill: #dadaeb;"
               id="path102" />
            <path
               transform="translate(695.5000000000985,738.0188)"
               d="M5,0A5,5,0,1,1,-5,0A5,5,0,1,1,5,0"
               style="fill: #636363;"
               id="path104" />
            <path
               transform="translate(802.4772305558056,162.0595344228049)"
               d="M5,0A5,5,0,1,1,-5,0A5,5,0,1,1,5,0"
               style="fill: #969696;"
               id="path106" />
            <path
               transform="translate(927.265486086915,810.037353446629)"
               d="M5,0A5,5,0,1,1,-5,0A5,5,0,1,1,5,0"
               style="fill: #bdbdbd;"
               id="path108" />
            <path
               transform="translate(644.4596453127101,450.036739212864)"
               d="M5,0A5,5,0,1,1,-5,0A5,5,0,1,1,5,0"
               style="fill: #d9d9d9;"
               id="path110" />
            <path
               transform="translate(644.5000022228072,18.0225958469528)"
               d="M5,0A5,5,0,1,1,-5,0A5,5,0,1,1,5,0"
               style="fill: #3182bd;"
               id="path112" />
            <path
               transform="translate(695.4504302834972,810.0068553685194)"
               d="M5,0A5,5,0,1,1,-5,0A5,5,0,1,1,5,0"
               style="fill: #6baed6;"
               id="path114" />
            <path
               transform="translate(832.4107712862547,665.9796610995447)"
               d="M5,0A5,5,0,1,1,-5,0A5,5,0,1,1,5,0"
               style="fill: #9ecae1;"
               id="path116" />
          </g>
          <g
             class="mark-text role-mark labels"
             id="g166">
            <text
               text-anchor="start"
               transform="translate(481.5,877)"
               style="font-family: sans-serif; font-size: 11px; font-weight: normal; fill: black;"
               id="text120">all</text>
            <text
               text-anchor="start"
               transform="translate(200.5,301)"
               style="font-family: sans-serif; font-size: 11px; font-weight: normal; fill: black;"
               id="text122">download_dbs</text>
            <text
               text-anchor="start"
               transform="translate(261.5,733)"
               style="font-family: sans-serif; font-size: 11px; font-weight: normal; fill: black;"
               id="text124">generate_barplots</text>
            <text
               text-anchor="start"
               transform="translate(519.5,157)"
               style="font-family: sans-serif; font-size: 11px; font-weight: normal; fill: black;"
               id="text126">generate_fasta</text>
            <text
               text-anchor="start"
               transform="translate(374.5,445)"
               style="font-family: sans-serif; font-size: 11px; font-weight: normal; fill: black;"
               id="text128">kraken_to_lca</text>
            <text
               text-anchor="start"
               transform="translate(355.5,589)"
               style="font-family: sans-serif; font-size: 11px; font-weight: normal; fill: black;"
               id="text130">kraken_to_matrix</text>
            <text
               text-anchor="start"
               transform="translate(306.5,805)"
               style="font-family: sans-serif; font-size: 11px; font-weight: normal; fill: black;"
               id="text132">merge_benchmarks</text>
            <text
               text-anchor="start"
               transform="translate(231.5,661)"
               style="font-family: sans-serif; font-size: 11px; font-weight: normal; fill: black;"
               id="text134">merge_tables</text>
            <text
               text-anchor="start"
               transform="translate(112.5,517)"
               style="font-family: sans-serif; font-size: 11px; font-weight: normal; fill: black;"
               id="text136">minimap_to_lca</text>
            <text
               text-anchor="start"
               transform="translate(112.5,589)"
               style="font-family: sans-serif; font-size: 11px; font-weight: normal; fill: black;"
               id="text138">minimap_to_matrix</text>
            <text
               text-anchor="start"
               transform="translate(390.5,301)"
               style="font-family: sans-serif; font-size: 11px; font-weight: normal; fill: black;"
               id="text140">parse_itsx</text>
            <text
               text-anchor="start"
               transform="translate(189.5,445)"
               style="font-family: sans-serif; font-size: 11px; font-weight: normal; fill: black;"
               id="text142">parse_minimap</text>
            <text
               text-anchor="start"
               transform="translate(649.5,85)"
               style="font-family: sans-serif; font-size: 11px; font-weight: normal; fill: black;"
               id="text144">run_chopper</text>
            <text
               text-anchor="start"
               transform="translate(407.5,229)"
               style="font-family: sans-serif; font-size: 11px; font-weight: normal; fill: black;"
               id="text146">run_itsx</text>
            <text
               text-anchor="start"
               transform="translate(374.5,373)"
               style="font-family: sans-serif; font-size: 11px; font-weight: normal; fill: black;"
               id="text148">run_kraken</text>
            <text
               text-anchor="start"
               transform="translate(200.5,373)"
               style="font-family: sans-serif; font-size: 11px; font-weight: normal; fill: black;"
               id="text150">run_minimap</text>
            <text
               text-anchor="start"
               transform="translate(700.5,733)"
               style="font-family: sans-serif; font-size: 11px; font-weight: normal; fill: black;"
               id="text152">run_nanostat</text>
            <text
               text-anchor="start"
               transform="translate(807.5,157)"
               style="font-family: sans-serif; font-size: 11px; font-weight: normal; fill: black;"
               id="text154">run_nanostat_filtered</text>
            <text
               text-anchor="start"
               transform="translate(932.5,805)"
               style="font-family: sans-serif; font-size: 11px; font-weight: normal; fill: black;"
               id="text156">run_pistis</text>
            <text
               text-anchor="start"
               transform="translate(649.5,445)"
               style="font-family: sans-serif; font-size: 11px; font-weight: normal; fill: black;"
               id="text158">run_pistis_filtered</text>
            <text
               text-anchor="start"
               transform="translate(649.5,13)"
               style="font-family: sans-serif; font-size: 11px; font-weight: normal; fill: black;"
               id="text160">run_porechop</text>
            <text
               text-anchor="start"
               transform="translate(700.5,805)"
               style="font-family: sans-serif; font-size: 11px; font-weight: normal; fill: black;"
               id="text162">summarize_nanostat</text>
            <text
               text-anchor="start"
               transform="translate(837.5,661)"
               style="font-family: sans-serif; font-size: 11px; font-weight: normal; fill: black;"
               id="text164">summarize_nanostat_filtered</text>
          </g>
        </g>
      </g>
    </g>
  </g>
</svg>
