<?xml version="1.0" encoding="UTF-8" standalone="no"?>
<svg
   class="marks"
   width="1216.3"
   height="902"
   viewBox="0 0 1216.3 902"
   version="1.1"
   id="svg192"
   sodipodi:docname="visualization.svg"
   inkscape:export-filename="visualization.png"
   inkscape:export-xdpi="96"
   inkscape:export-ydpi="96"
   inkscape:version="1.2.2 (732a01da63, 2022-12-09)"
   xmlns:inkscape="http://www.inkscape.org/namespaces/inkscape"
   xmlns:sodipodi="http://sodipodi.sourceforge.net/DTD/sodipodi-0.dtd"
   xmlns="http://www.w3.org/2000/svg"
   xmlns:svg="http://www.w3.org/2000/svg">
  <defs
     id="defs196" />
  <sodipodi:namedview
     id="namedview194"
     pagecolor="#ffffff"
     bordercolor="#000000"
     borderopacity="0.25"
     inkscape:showpageshadow="2"
     inkscape:pageopacity="0.0"
     inkscape:pagecheckerboard="0"
     inkscape:deskcolor="#d1d1d1"
     showgrid="false"
     inkscape:zoom="0.6"
     inkscape:cx="672.5"
     inkscape:cy="466.66667"
     inkscape:window-width="1914"
     inkscape:window-height="1097"
     inkscape:window-x="2870"
     inkscape:window-y="3"
     inkscape:window-maximized="0"
     inkscape:current-layer="svg192" />
  <rect
     style="fill:#ffffff"
     id="rect423"
     width="1205"
     height="895"
     x="5"
     y="3.3333333" />
  <g
     transform="translate(0,0)"
     id="g190">
    <g
       class="mark-group role-frame root"
       id="g188">
      <g
         transform="translate(0,0)"
         id="g186">
        <path
           class="background"
           d="M0,0h1216.3v902h-1216.3Z"
           style="fill: none;"
           id="path2" />
        <g
           id="g184">
          <g
             class="mark-path role-mark"
             style="pointer-events: none;"
             id="g78">
            <path
               transform="translate(0,0)"
               d="M101.34162875808084,521.9799865646285C101.34162875808084,414.0050136137039 112.35411718673383,414.0050136137039 112.35411718673383,306.0300406627794"
               style="fill: none; stroke: #ccc; stroke-width: 0.5;"
               id="path4" />
            <path
               transform="translate(0,0)"
               d="M112.37589083202015,377.9921737702409C112.37589083202015,342.01110721651014 112.35411718673383,342.01110721651014 112.35411718673383,306.0300406627794"
               style="fill: none; stroke: #ccc; stroke-width: 0.5;"
               id="path6" />
            <path
               transform="translate(0,0)"
               d="M286.3388195136718,377.9914740468184C286.3388195136718,342.0107573547989 112.35411718673383,342.0107573547989 112.35411718673383,306.0300406627794"
               style="fill: none; stroke: #ccc; stroke-width: 0.5;"
               id="path8" />
            <path
               transform="translate(0,0)"
               d="M547.3543369409512,881.8615504729482C547.3543369409512,809.9417142885843 289.379598992468,809.9417142885843 289.379598992468,738.0218781042205"
               style="fill: none; stroke: #ccc; stroke-width: 0.5;"
               id="path10" />
            <path
               transform="translate(0,0)"
               d="M334.3835152026777,810.0074894167612C334.3835152026777,774.0146837604909 289.379598992468,774.0146837604909 289.379598992468,738.0218781042205"
               style="fill: none; stroke: #ccc; stroke-width: 0.5;"
               id="path12" />
            <path
               transform="translate(0,0)"
               d="M547.3543369409512,881.8615504729482C547.3543369409512,521.9877216666108 739.2998120813127,521.9877216666108 739.2998120813127,162.11389286027335"
               style="fill: none; stroke: #ccc; stroke-width: 0.5;"
               id="path14" />
            <path
               transform="translate(0,0)"
               d="M536.3492375116651,234.00197810449492C536.3492375116651,198.05793548238415 739.2998120813127,198.05793548238415 739.2998120813127,162.11389286027335"
               style="fill: none; stroke: #ccc; stroke-width: 0.5;"
               id="path16" />
            <path
               transform="translate(0,0)"
               d="M335.36020787238306,594.0353837990924C335.36020787238306,522.0242864662683 286.34736870150044,522.0242864662683 286.34736870150044,450.0131891334442"
               style="fill: none; stroke: #ccc; stroke-width: 0.5;"
               id="path18" />
            <path
               transform="translate(0,0)"
               d="M547.3543369409512,881.8615504729482C547.3543369409512,737.9484671360203 335.36020787238306,737.9484671360203 335.36020787238306,594.0353837990924"
               style="fill: none; stroke: #ccc; stroke-width: 0.5;"
               id="path20" />
            <path
               transform="translate(0,0)"
               d="M256.36769438888126,666.01734400297C256.36769438888126,630.0263639010312 335.36020787238306,630.0263639010312 335.36020787238306,594.0353837990924"
               style="fill: none; stroke: #ccc; stroke-width: 0.5;"
               id="path22" />
            <path
               transform="translate(0,0)"
               d="M547.3543369409512,881.8615504729482C547.3543369409512,845.9345199448547 334.3835152026777,845.9345199448547 334.3835152026777,810.0074894167612"
               style="fill: none; stroke: #ccc; stroke-width: 0.5;"
               id="path24" />
            <path
               transform="translate(0,0)"
               d="M547.3543369409512,881.8615504729482C547.3543369409512,773.9394472379591 256.36769438888126,773.9394472379591 256.36769438888126,666.01734400297"
               style="fill: none; stroke: #ccc; stroke-width: 0.5;"
               id="path26" />
            <path
               transform="translate(0,0)"
               d="M289.379598992468,738.0218781042205C289.379598992468,702.0196110535953 256.36769438888126,702.0196110535953 256.36769438888126,666.01734400297"
               style="fill: none; stroke: #ccc; stroke-width: 0.5;"
               id="path28" />
            <path
               transform="translate(0,0)"
               d="M111.42080390418776,594.0467764471668C111.42080390418776,558.0133815058977 101.34162875808084,558.0133815058977 101.34162875808084,521.9799865646285"
               style="fill: none; stroke: #ccc; stroke-width: 0.5;"
               id="path30" />
            <path
               transform="translate(0,0)"
               d="M547.3543369409512,881.8615504729482C547.3543369409512,737.9541634600575 111.42080390418776,737.9541634600575 111.42080390418776,594.0467764471668"
               style="fill: none; stroke: #ccc; stroke-width: 0.5;"
               id="path32" />
            <path
               transform="translate(0,0)"
               d="M256.36769438888126,666.01734400297C256.36769438888126,630.0320602250684 111.42080390418776,630.0320602250684 111.42080390418776,594.0467764471668"
               style="fill: none; stroke: #ccc; stroke-width: 0.5;"
               id="path34" />
            <path
               transform="translate(0,0)"
               d="M547.3543369409512,881.8615504729482C547.3543369409512,593.9635533071817 412.34285290037644,593.9635533071817 412.34285290037644,306.06555614141513"
               style="fill: none; stroke: #ccc; stroke-width: 0.5;"
               id="path36" />
            <path
               transform="translate(0,0)"
               d="M585.2961014506704,450.0770270199651C585.2961014506704,378.0712915806901 412.34285290037644,378.0712915806901 412.34285290037644,306.06555614141513"
               style="fill: none; stroke: #ccc; stroke-width: 0.5;"
               id="path38" />
            <path
               transform="translate(0,0)"
               d="M414.37193174481615,522.0445146263193C414.37193174481615,414.0550353838672 412.34285290037644,414.0550353838672 412.34285290037644,306.06555614141513"
               style="fill: none; stroke: #ccc; stroke-width: 0.5;"
               id="path40" />
            <path
               transform="translate(0,0)"
               d="M112.37589083202015,377.9921737702409C112.37589083202015,342.028864955828 412.34285290037644,342.028864955828 412.34285290037644,306.06555614141513"
               style="fill: none; stroke: #ccc; stroke-width: 0.5;"
               id="path42" />
            <path
               transform="translate(0,0)"
               d="M286.3388195136718,377.9914740468184C286.3388195136718,342.02851509411676 412.34285290037644,342.02851509411676 412.34285290037644,306.06555614141513"
               style="fill: none; stroke: #ccc; stroke-width: 0.5;"
               id="path44" />
            <path
               transform="translate(0,0)"
               d="M101.34162875808084,521.9799865646285C101.34162875808084,485.98996176668606 101.34130837415272,485.98996176668606 101.34130837415272,449.9999369687436"
               style="fill: none; stroke: #ccc; stroke-width: 0.5;"
               id="path46" />
            <path
               transform="translate(0,0)"
               d="M739.2998120813127,162.11389286027335C739.2998120813127,126.07646695623836 861.3444784994828,126.07646695623836 861.3444784994828,90.03904105220337"
               style="fill: none; stroke: #ccc; stroke-width: 0.5;"
               id="path48" />
            <path
               transform="translate(0,0)"
               d="M1007.2752953017115,162.05966631082086C1007.2752953017115,126.04935368151212 861.3444784994828,126.04935368151212 861.3444784994828,90.03904105220337"
               style="fill: none; stroke: #ccc; stroke-width: 0.5;"
               id="path50" />
            <path
               transform="translate(0,0)"
               d="M869.2586676298696,450.0401050265855C869.2586676298696,270.03957303939444 861.3444784994828,270.03957303939444 861.3444784994828,90.03904105220337"
               style="fill: none; stroke: #ccc; stroke-width: 0.5;"
               id="path52" />
            <path
               transform="translate(0,0)"
               d="M412.34285290037644,306.06555614141513C412.34285290037644,270.03376712295506 536.3492375116651,270.03376712295506 536.3492375116651,234.00197810449492"
               style="fill: none; stroke: #ccc; stroke-width: 0.5;"
               id="path54" />
            <path
               transform="translate(0,0)"
               d="M286.34736870150044,450.0131891334442C286.34736870150044,414.0023315901313 286.3388195136718,414.0023315901313 286.3388195136718,377.9914740468184"
               style="fill: none; stroke: #ccc; stroke-width: 0.5;"
               id="path56" />
            <path
               transform="translate(0,0)"
               d="M101.34130837415272,449.9999369687436C101.34130837415272,413.9960553694923 112.37589083202015,413.9960553694923 112.37589083202015,377.9921737702409"
               style="fill: none; stroke: #ccc; stroke-width: 0.5;"
               id="path58" />
            <path
               transform="translate(0,0)"
               d="M864.2639129936025,810.0078329656011C864.2639129936025,774.0133164828005 864.339999999895,774.0133164828005 864.339999999895,738.0188"
               style="fill: none; stroke: #ccc; stroke-width: 0.5;"
               id="path60" />
            <path
               transform="translate(0,0)"
               d="M1007.1862872005464,665.9815197499718C1007.1862872005464,414.0205930303963 1007.2752953017115,414.0205930303963 1007.2752953017115,162.05966631082086"
               style="fill: none; stroke: #ccc; stroke-width: 0.5;"
               id="path62" />
            <path
               transform="translate(0,0)"
               d="M547.3543369409512,881.8615504729482C547.3543369409512,845.9498920461524 1096.0079188266625,845.9498920461524 1096.0079188266625,810.0382336193567"
               style="fill: none; stroke: #ccc; stroke-width: 0.5;"
               id="path64" />
            <path
               transform="translate(0,0)"
               d="M547.3543369409512,881.8615504729482C547.3543369409512,665.9508277497669 869.2586676298696,665.9508277497669 869.2586676298696,450.0401050265855"
               style="fill: none; stroke: #ccc; stroke-width: 0.5;"
               id="path66" />
            <path
               transform="translate(0,0)"
               d="M861.3444784994828,90.03904105220337C861.3444784994828,54.03081840212996 861.3400023403633,54.03081840212996 861.3400023403633,18.022595752056542"
               style="fill: none; stroke: #ccc; stroke-width: 0.5;"
               id="path68" />
            <path
               transform="translate(0,0)"
               d="M547.3543369409512,881.8615504729482C547.3543369409512,665.9692887464566 585.2961014506704,665.9692887464566 585.2961014506704,450.0770270199651"
               style="fill: none; stroke: #ccc; stroke-width: 0.5;"
               id="path70" />
            <path
               transform="translate(0,0)"
               d="M547.3543369409512,881.8615504729482C547.3543369409512,701.9530325496337 414.37193174481615,701.9530325496337 414.37193174481615,522.0445146263193"
               style="fill: none; stroke: #ccc; stroke-width: 0.5;"
               id="path72" />
            <path
               transform="translate(0,0)"
               d="M547.3543369409512,881.8615504729482C547.3543369409512,845.9346917192747 864.2639129936025,845.9346917192747 864.2639129936025,810.0078329656011"
               style="fill: none; stroke: #ccc; stroke-width: 0.5;"
               id="path74" />
            <path
               transform="translate(0,0)"
               d="M547.3543369409512,881.8615504729482C547.3543369409512,773.92153511146 1007.1862872005464,773.92153511146 1007.1862872005464,665.9815197499718"
               style="fill: none; stroke: #ccc; stroke-width: 0.5;"
               id="path76" />
          </g>
          <g
             class="mark-symbol role-mark nodes"
             id="g130">
            <path
               transform="translate(547.3543369409512,881.8615504729482)"
               d="M5,0A5,5,0,1,1,-5,0A5,5,0,1,1,5,0"
               style="fill: #3182bd;"
               id="path80" />
            <path
               transform="translate(112.35411718673383,306.0300406627794)"
               d="M5,0A5,5,0,1,1,-5,0A5,5,0,1,1,5,0"
               style="fill: #6baed6;"
               id="path82" />
            <path
               transform="translate(289.379598992468,738.0218781042205)"
               d="M5,0A5,5,0,1,1,-5,0A5,5,0,1,1,5,0"
               style="fill: #9ecae1;"
               id="path84" />
            <path
               transform="translate(739.2998120813127,162.11389286027335)"
               d="M5,0A5,5,0,1,1,-5,0A5,5,0,1,1,5,0"
               style="fill: #c6dbef;"
               id="path86" />
            <path
               transform="translate(286.34736870150044,450.0131891334442)"
               d="M5,0A5,5,0,1,1,-5,0A5,5,0,1,1,5,0"
               style="fill: #e6550d;"
               id="path88" />
            <path
               transform="translate(335.36020787238306,594.0353837990924)"
               d="M5,0A5,5,0,1,1,-5,0A5,5,0,1,1,5,0"
               style="fill: #fd8d3c;"
               id="path90" />
            <path
               transform="translate(334.3835152026777,810.0074894167612)"
               d="M5,0A5,5,0,1,1,-5,0A5,5,0,1,1,5,0"
               style="fill: #fdae6b;"
               id="path92" />
            <path
               transform="translate(256.36769438888126,666.01734400297)"
               d="M5,0A5,5,0,1,1,-5,0A5,5,0,1,1,5,0"
               style="fill: #fdd0a2;"
               id="path94" />
            <path
               transform="translate(101.34162875808084,521.9799865646285)"
               d="M5,0A5,5,0,1,1,-5,0A5,5,0,1,1,5,0"
               style="fill: #31a354;"
               id="path96" />
            <path
               transform="translate(111.42080390418776,594.0467764471668)"
               d="M5,0A5,5,0,1,1,-5,0A5,5,0,1,1,5,0"
               style="fill: #74c476;"
               id="path98" />
            <path
               transform="translate(412.34285290037644,306.06555614141513)"
               d="M5,0A5,5,0,1,1,-5,0A5,5,0,1,1,5,0"
               style="fill: #a1d99b;"
               id="path100" />
            <path
               transform="translate(101.34130837415272,449.9999369687436)"
               d="M5,0A5,5,0,1,1,-5,0A5,5,0,1,1,5,0"
               style="fill: #c7e9c0;"
               id="path102" />
            <path
               transform="translate(861.3444784994828,90.03904105220337)"
               d="M5,0A5,5,0,1,1,-5,0A5,5,0,1,1,5,0"
               style="fill: #756bb1;"
               id="path104" />
            <path
               transform="translate(536.3492375116651,234.00197810449492)"
               d="M5,0A5,5,0,1,1,-5,0A5,5,0,1,1,5,0"
               style="fill: #9e9ac8;"
               id="path106" />
            <path
               transform="translate(286.3388195136718,377.9914740468184)"
               d="M5,0A5,5,0,1,1,-5,0A5,5,0,1,1,5,0"
               style="fill: #bcbddc;"
               id="path108" />
            <path
               transform="translate(112.37589083202015,377.9921737702409)"
               d="M5,0A5,5,0,1,1,-5,0A5,5,0,1,1,5,0"
               style="fill: #dadaeb;"
               id="path110" />
            <path
               transform="translate(864.339999999895,738.0188)"
               d="M5,0A5,5,0,1,1,-5,0A5,5,0,1,1,5,0"
               style="fill: #636363;"
               id="path112" />
            <path
               transform="translate(1007.2752953017115,162.05966631082086)"
               d="M5,0A5,5,0,1,1,-5,0A5,5,0,1,1,5,0"
               style="fill: #969696;"
               id="path114" />
            <path
               transform="translate(1096.0079188266625,810.0382336193567)"
               d="M5,0A5,5,0,1,1,-5,0A5,5,0,1,1,5,0"
               style="fill: #bdbdbd;"
               id="path116" />
            <path
               transform="translate(869.2586676298696,450.0401050265855)"
               d="M5,0A5,5,0,1,1,-5,0A5,5,0,1,1,5,0"
               style="fill: #d9d9d9;"
               id="path118" />
            <path
               transform="translate(861.3400023403633,18.022595752056542)"
               d="M5,0A5,5,0,1,1,-5,0A5,5,0,1,1,5,0"
               style="fill: #3182bd;"
               id="path120" />
            <path
               transform="translate(585.2961014506704,450.0770270199651)"
               d="M5,0A5,5,0,1,1,-5,0A5,5,0,1,1,5,0"
               style="fill: #6baed6;"
               id="path122" />
            <path
               transform="translate(414.37193174481615,522.0445146263193)"
               d="M5,0A5,5,0,1,1,-5,0A5,5,0,1,1,5,0"
               style="fill: #9ecae1;"
               id="path124" />
            <path
               transform="translate(864.2639129936025,810.0078329656011)"
               d="M5,0A5,5,0,1,1,-5,0A5,5,0,1,1,5,0"
               style="fill: #c6dbef;"
               id="path126" />
            <path
               transform="translate(1007.1862872005464,665.9815197499718)"
               d="M5,0A5,5,0,1,1,-5,0A5,5,0,1,1,5,0"
               style="fill: #e6550d;"
               id="path128" />
          </g>
          <g
             class="mark-text role-mark labels"
             id="g182">
            <text
               text-anchor="start"
               transform="translate(552.34,877)"
               style="font-family: sans-serif; font-size: 11px; font-weight: normal; fill: black;"
               id="text132">all</text>
            <text
               text-anchor="start"
               transform="translate(117.34,301)"
               style="font-family: sans-serif; font-size: 11px; font-weight: normal; fill: black;"
               id="text134">download_dbs</text>
            <text
               text-anchor="start"
               transform="translate(294.34,733)"
               style="font-family: sans-serif; font-size: 11px; font-weight: normal; fill: black;"
               id="text136">generate_barplots</text>
            <text
               text-anchor="start"
               transform="translate(744.34,157)"
               style="font-family: sans-serif; font-size: 11px; font-weight: normal; fill: black;"
               id="text138">generate_fasta</text>
            <text
               text-anchor="start"
               transform="translate(291.34,445)"
               style="font-family: sans-serif; font-size: 11px; font-weight: normal; fill: black;"
               id="text140">kraken_to_lca</text>
            <text
               text-anchor="start"
               transform="translate(340.34,589)"
               style="font-family: sans-serif; font-size: 11px; font-weight: normal; fill: black;"
               id="text142">kraken_to_matrix</text>
            <text
               text-anchor="start"
               transform="translate(339.34,805)"
               style="font-family: sans-serif; font-size: 11px; font-weight: normal; fill: black;"
               id="text144">merge_benchmarks</text>
            <text
               text-anchor="start"
               transform="translate(261.34,661)"
               style="font-family: sans-serif; font-size: 11px; font-weight: normal; fill: black;"
               id="text146">merge_tables</text>
            <text
               text-anchor="start"
               transform="translate(106.34,517)"
               style="font-family: sans-serif; font-size: 11px; font-weight: normal; fill: black;"
               id="text148">minimap_to_lca</text>
            <text
               text-anchor="start"
               transform="translate(116.34,589)"
               style="font-family: sans-serif; font-size: 11px; font-weight: normal; fill: black;"
               id="text150">minimap_to_matrix</text>
            <text
               text-anchor="start"
               transform="translate(417.34,301)"
               style="font-family: sans-serif; font-size: 11px; font-weight: normal; fill: black;"
               id="text152">parse_itsx</text>
            <text
               text-anchor="start"
               transform="translate(106.34,445)"
               style="font-family: sans-serif; font-size: 11px; font-weight: normal; fill: black;"
               id="text154">parse_minimap</text>
            <text
               text-anchor="start"
               transform="translate(866.34,85)"
               style="font-family: sans-serif; font-size: 11px; font-weight: normal; fill: black;"
               id="text156">run_chopper</text>
            <text
               text-anchor="start"
               transform="translate(541.34,229)"
               style="font-family: sans-serif; font-size: 11px; font-weight: normal; fill: black;"
               id="text158">run_itsx</text>
            <text
               text-anchor="start"
               transform="translate(291.34,373)"
               style="font-family: sans-serif; font-size: 11px; font-weight: normal; fill: black;"
               id="text160">run_kraken</text>
            <text
               text-anchor="start"
               transform="translate(117.34,373)"
               style="font-family: sans-serif; font-size: 11px; font-weight: normal; fill: black;"
               id="text162">run_minimap</text>
            <text
               text-anchor="start"
               transform="translate(869.34,733)"
               style="font-family: sans-serif; font-size: 11px; font-weight: normal; fill: black;"
               id="text164">run_nanostat</text>
            <text
               text-anchor="start"
               transform="translate(1012.3,157)"
               style="font-family: sans-serif; font-size: 11px; font-weight: normal; fill: black;"
               id="text166">run_nanostat_filtered</text>
            <text
               text-anchor="start"
               transform="translate(1101.3,805)"
               style="font-family: sans-serif; font-size: 11px; font-weight: normal; fill: black;"
               id="text168">run_pistis</text>
            <text
               text-anchor="start"
               transform="translate(874.34,445)"
               style="font-family: sans-serif; font-size: 11px; font-weight: normal; fill: black;"
               id="text170">run_pistis_filtered</text>
            <text
               text-anchor="start"
               transform="translate(866.34,13)"
               style="font-family: sans-serif; font-size: 11px; font-weight: normal; fill: black;"
               id="text172">run_porechop</text>
            <text
               text-anchor="start"
               transform="translate(590.34,445)"
               style="font-family: sans-serif; font-size: 11px; font-weight: normal; fill: black;"
               id="text174">summarize_itsx_length</text>
            <text
               text-anchor="start"
               transform="translate(419.34,517)"
               style="font-family: sans-serif; font-size: 11px; font-weight: normal; fill: black;"
               id="text176">summarize_itsx_nr</text>
            <text
               text-anchor="start"
               transform="translate(869.34,805)"
               style="font-family: sans-serif; font-size: 11px; font-weight: normal; fill: black;"
               id="text178">summarize_nanostat</text>
            <text
               text-anchor="start"
               transform="translate(1012.3,661)"
               style="font-family: sans-serif; font-size: 11px; font-weight: normal; fill: black;"
               id="text180">summarize_nanostat_filtered</text>
          </g>
        </g>
      </g>
    </g>
  </g>
</svg>
