<svg class="marks" width="1216.3" height="902" viewBox="0 0 1216.3 902" version="1.1" xmlns="http://www.w3.org/2000/svg" xmlns:xlink="http://www.w3.org/1999/xlink"><g transform="translate(0,0)"><g class="mark-group role-frame root"><g transform="translate(0,0)"><path class="background" d="M0,0h1216.3v902h-1216.3Z" style="fill: none;"></path><g><g class="mark-path role-mark" style="pointer-events: none;"><path transform="translate(0,0)" d="M101.34162875808084,521.9799865646285C101.34162875808084,414.0050136137039 112.35411718673383,414.0050136137039 112.35411718673383,306.0300406627794" style="fill: none; stroke: #ccc; stroke-width: 0.5;"></path><path transform="translate(0,0)" d="M112.37589083202015,377.9921737702409C112.37589083202015,342.01110721651014 112.35411718673383,342.01110721651014 112.35411718673383,306.0300406627794" style="fill: none; stroke: #ccc; stroke-width: 0.5;"></path><path transform="translate(0,0)" d="M286.3388195136718,377.9914740468184C286.3388195136718,342.0107573547989 112.35411718673383,342.0107573547989 112.35411718673383,306.0300406627794" style="fill: none; stroke: #ccc; stroke-width: 0.5;"></path><path transform="translate(0,0)" d="M547.3543369409512,881.8615504729482C547.3543369409512,809.9417142885843 289.379598992468,809.9417142885843 289.379598992468,738.0218781042205" style="fill: none; stroke: #ccc; stroke-width: 0.5;"></path><path transform="translate(0,0)" d="M334.3835152026777,810.0074894167612C334.3835152026777,774.0146837604909 289.379598992468,774.0146837604909 289.379598992468,738.0218781042205" style="fill: none; stroke: #ccc; stroke-width: 0.5;"></path><path transform="translate(0,0)" d="M547.3543369409512,881.8615504729482C547.3543369409512,521.9877216666108 739.2998120813127,521.9877216666108 739.2998120813127,162.11389286027335" style="fill: none; stroke: #ccc; stroke-width: 0.5;"></path><path transform="translate(0,0)" d="M536.3492375116651,234.00197810449492C536.3492375116651,198.05793548238415 739.2998120813127,198.05793548238415 739.2998120813127,162.11389286027335" style="fill: none; stroke: #ccc; stroke-width: 0.5;"></path><path transform="translate(0,0)" d="M335.36020787238306,594.0353837990924C335.36020787238306,522.0242864662683 286.34736870150044,522.0242864662683 286.34736870150044,450.0131891334442" style="fill: none; stroke: #ccc; stroke-width: 0.5;"></path><path transform="translate(0,0)" d="M547.3543369409512,881.8615504729482C547.3543369409512,737.9484671360203 335.36020787238306,737.9484671360203 335.36020787238306,594.0353837990924" style="fill: none; stroke: #ccc; stroke-width: 0.5;"></path><path transform="translate(0,0)" d="M256.36769438888126,666.01734400297C256.36769438888126,630.0263639010312 335.36020787238306,630.0263639010312 335.36020787238306,594.0353837990924" style="fill: none; stroke: #ccc; stroke-width: 0.5;"></path><path transform="translate(0,0)" d="M547.3543369409512,881.8615504729482C547.3543369409512,845.9345199448547 334.3835152026777,845.9345199448547 334.3835152026777,810.0074894167612" style="fill: none; stroke: #ccc; stroke-width: 0.5;"></path><path transform="translate(0,0)" d="M547.3543369409512,881.8615504729482C547.3543369409512,773.9394472379591 256.36769438888126,773.9394472379591 256.36769438888126,666.01734400297" style="fill: none; stroke: #ccc; stroke-width: 0.5;"></path><path transform="translate(0,0)" d="M289.379598992468,738.0218781042205C289.379598992468,702.0196110535953 256.36769438888126,702.0196110535953 256.36769438888126,666.01734400297" style="fill: none; stroke: #ccc; stroke-width: 0.5;"></path><path transform="translate(0,0)" d="M111.42080390418776,594.0467764471668C111.42080390418776,558.0133815058977 101.34162875808084,558.0133815058977 101.34162875808084,521.9799865646285" style="fill: none; stroke: #ccc; stroke-width: 0.5;"></path><path transform="translate(0,0)" d="M547.3543369409512,881.8615504729482C547.3543369409512,737.9541634600575 111.42080390418776,737.9541634600575 111.42080390418776,594.0467764471668" style="fill: none; stroke: #ccc; stroke-width: 0.5;"></path><path transform="translate(0,0)" d="M256.36769438888126,666.01734400297C256.36769438888126,630.0320602250684 111.42080390418776,630.0320602250684 111.42080390418776,594.0467764471668" style="fill: none; stroke: #ccc; stroke-width: 0.5;"></path><path transform="translate(0,0)" d="M547.3543369409512,881.8615504729482C547.3543369409512,593.9635533071817 412.34285290037644,593.9635533071817 412.34285290037644,306.06555614141513" style="fill: none; stroke: #ccc; stroke-width: 0.5;"></path><path transform="translate(0,0)" d="M585.2961014506704,450.0770270199651C585.2961014506704,378.0712915806901 412.34285290037644,378.0712915806901 412.34285290037644,306.06555614141513" style="fill: none; stroke: #ccc; stroke-width: 0.5;"></path><path transform="translate(0,0)" d="M414.37193174481615,522.0445146263193C414.37193174481615,414.0550353838672 412.34285290037644,414.0550353838672 412.34285290037644,306.06555614141513" style="fill: none; stroke: #ccc; stroke-width: 0.5;"></path><path transform="translate(0,0)" d="M112.37589083202015,377.9921737702409C112.37589083202015,342.028864955828 412.34285290037644,342.028864955828 412.34285290037644,306.06555614141513" style="fill: none; stroke: #ccc; stroke-width: 0.5;"></path><path transform="translate(0,0)" d="M286.3388195136718,377.9914740468184C286.3388195136718,342.02851509411676 412.34285290037644,342.02851509411676 412.34285290037644,306.06555614141513" style="fill: none; stroke: #ccc; stroke-width: 0.5;"></path><path transform="translate(0,0)" d="M101.34162875808084,521.9799865646285C101.34162875808084,485.98996176668606 101.34130837415272,485.98996176668606 101.34130837415272,449.9999369687436" style="fill: none; stroke: #ccc; stroke-width: 0.5;"></path><path transform="translate(0,0)" d="M739.2998120813127,162.11389286027335C739.2998120813127,126.07646695623836 861.3444784994828,126.07646695623836 861.3444784994828,90.03904105220337" style="fill: none; stroke: #ccc; stroke-width: 0.5;"></path><path transform="translate(0,0)" d="M1007.2752953017115,162.05966631082086C1007.2752953017115,126.04935368151212 861.3444784994828,126.04935368151212 861.3444784994828,90.03904105220337" style="fill: none; stroke: #ccc; stroke-width: 0.5;"></path><path transform="translate(0,0)" d="M869.2586676298696,450.0401050265855C869.2586676298696,270.03957303939444 861.3444784994828,270.03957303939444 861.3444784994828,90.03904105220337" style="fill: none; stroke: #ccc; stroke-width: 0.5;"></path><path transform="translate(0,0)" d="M412.34285290037644,306.06555614141513C412.34285290037644,270.03376712295506 536.3492375116651,270.03376712295506 536.3492375116651,234.00197810449492" style="fill: none; stroke: #ccc; stroke-width: 0.5;"></path><path transform="translate(0,0)" d="M286.34736870150044,450.0131891334442C286.34736870150044,414.0023315901313 286.3388195136718,414.0023315901313 286.3388195136718,377.9914740468184" style="fill: none; stroke: #ccc; stroke-width: 0.5;"></path><path transform="translate(0,0)" d="M101.34130837415272,449.9999369687436C101.34130837415272,413.9960553694923 112.37589083202015,413.9960553694923 112.37589083202015,377.9921737702409" style="fill: none; stroke: #ccc; stroke-width: 0.5;"></path><path transform="translate(0,0)" d="M864.2639129936025,810.0078329656011C864.2639129936025,774.0133164828005 864.339999999895,774.0133164828005 864.339999999895,738.0188" style="fill: none; stroke: #ccc; stroke-width: 0.5;"></path><path transform="translate(0,0)" d="M1007.1862872005464,665.9815197499718C1007.1862872005464,414.0205930303963 1007.2752953017115,414.0205930303963 1007.2752953017115,162.05966631082086" style="fill: none; stroke: #ccc; stroke-width: 0.5;"></path><path transform="translate(0,0)" d="M547.3543369409512,881.8615504729482C547.3543369409512,845.9498920461524 1096.0079188266625,845.9498920461524 1096.0079188266625,810.0382336193567" style="fill: none; stroke: #ccc; stroke-width: 0.5;"></path><path transform="translate(0,0)" d="M547.3543369409512,881.8615504729482C547.3543369409512,665.9508277497669 869.2586676298696,665.9508277497669 869.2586676298696,450.0401050265855" style="fill: none; stroke: #ccc; stroke-width: 0.5;"></path><path transform="translate(0,0)" d="M861.3444784994828,90.03904105220337C861.3444784994828,54.03081840212996 861.3400023403633,54.03081840212996 861.3400023403633,18.022595752056542" style="fill: none; stroke: #ccc; stroke-width: 0.5;"></path><path transform="translate(0,0)" d="M547.3543369409512,881.8615504729482C547.3543369409512,665.9692887464566 585.2961014506704,665.9692887464566 585.2961014506704,450.0770270199651" style="fill: none; stroke: #ccc; stroke-width: 0.5;"></path><path transform="translate(0,0)" d="M547.3543369409512,881.8615504729482C547.3543369409512,701.9530325496337 414.37193174481615,701.9530325496337 414.37193174481615,522.0445146263193" style="fill: none; stroke: #ccc; stroke-width: 0.5;"></path><path transform="translate(0,0)" d="M547.3543369409512,881.8615504729482C547.3543369409512,845.9346917192747 864.2639129936025,845.9346917192747 864.2639129936025,810.0078329656011" style="fill: none; stroke: #ccc; stroke-width: 0.5;"></path><path transform="translate(0,0)" d="M547.3543369409512,881.8615504729482C547.3543369409512,773.92153511146 1007.1862872005464,773.92153511146 1007.1862872005464,665.9815197499718" style="fill: none; stroke: #ccc; stroke-width: 0.5;"></path></g><g class="mark-symbol role-mark nodes"><path transform="translate(547.3543369409512,881.8615504729482)" d="M5,0A5,5,0,1,1,-5,0A5,5,0,1,1,5,0" style="fill: #3182bd;"></path><path transform="translate(112.35411718673383,306.0300406627794)" d="M5,0A5,5,0,1,1,-5,0A5,5,0,1,1,5,0" style="fill: #6baed6;"></path><path transform="translate(289.379598992468,738.0218781042205)" d="M5,0A5,5,0,1,1,-5,0A5,5,0,1,1,5,0" style="fill: #9ecae1;"></path><path transform="translate(739.2998120813127,162.11389286027335)" d="M5,0A5,5,0,1,1,-5,0A5,5,0,1,1,5,0" style="fill: #c6dbef;"></path><path transform="translate(286.34736870150044,450.0131891334442)" d="M5,0A5,5,0,1,1,-5,0A5,5,0,1,1,5,0" style="fill: #e6550d;"></path><path transform="translate(335.36020787238306,594.0353837990924)" d="M5,0A5,5,0,1,1,-5,0A5,5,0,1,1,5,0" style="fill: #fd8d3c;"></path><path transform="translate(334.3835152026777,810.0074894167612)" d="M5,0A5,5,0,1,1,-5,0A5,5,0,1,1,5,0" style="fill: #fdae6b;"></path><path transform="translate(256.36769438888126,666.01734400297)" d="M5,0A5,5,0,1,1,-5,0A5,5,0,1,1,5,0" style="fill: #fdd0a2;"></path><path transform="translate(101.34162875808084,521.9799865646285)" d="M5,0A5,5,0,1,1,-5,0A5,5,0,1,1,5,0" style="fill: #31a354;"></path><path transform="translate(111.42080390418776,594.0467764471668)" d="M5,0A5,5,0,1,1,-5,0A5,5,0,1,1,5,0" style="fill: #74c476;"></path><path transform="translate(412.34285290037644,306.06555614141513)" d="M5,0A5,5,0,1,1,-5,0A5,5,0,1,1,5,0" style="fill: #a1d99b;"></path><path transform="translate(101.34130837415272,449.9999369687436)" d="M5,0A5,5,0,1,1,-5,0A5,5,0,1,1,5,0" style="fill: #c7e9c0;"></path><path transform="translate(861.3444784994828,90.03904105220337)" d="M5,0A5,5,0,1,1,-5,0A5,5,0,1,1,5,0" style="fill: #756bb1;"></path><path transform="translate(536.3492375116651,234.00197810449492)" d="M5,0A5,5,0,1,1,-5,0A5,5,0,1,1,5,0" style="fill: #9e9ac8;"></path><path transform="translate(286.3388195136718,377.9914740468184)" d="M5,0A5,5,0,1,1,-5,0A5,5,0,1,1,5,0" style="fill: #bcbddc;"></path><path transform="translate(112.37589083202015,377.9921737702409)" d="M5,0A5,5,0,1,1,-5,0A5,5,0,1,1,5,0" style="fill: #dadaeb;"></path><path transform="translate(864.339999999895,738.0188)" d="M5,0A5,5,0,1,1,-5,0A5,5,0,1,1,5,0" style="fill: #636363;"></path><path transform="translate(1007.2752953017115,162.05966631082086)" d="M5,0A5,5,0,1,1,-5,0A5,5,0,1,1,5,0" style="fill: #969696;"></path><path transform="translate(1096.0079188266625,810.0382336193567)" d="M5,0A5,5,0,1,1,-5,0A5,5,0,1,1,5,0" style="fill: #bdbdbd;"></path><path transform="translate(869.2586676298696,450.0401050265855)" d="M5,0A5,5,0,1,1,-5,0A5,5,0,1,1,5,0" style="fill: #d9d9d9;"></path><path transform="translate(861.3400023403633,18.022595752056542)" d="M5,0A5,5,0,1,1,-5,0A5,5,0,1,1,5,0" style="fill: #3182bd;"></path><path transform="translate(585.2961014506704,450.0770270199651)" d="M5,0A5,5,0,1,1,-5,0A5,5,0,1,1,5,0" style="fill: #6baed6;"></path><path transform="translate(414.37193174481615,522.0445146263193)" d="M5,0A5,5,0,1,1,-5,0A5,5,0,1,1,5,0" style="fill: #9ecae1;"></path><path transform="translate(864.2639129936025,810.0078329656011)" d="M5,0A5,5,0,1,1,-5,0A5,5,0,1,1,5,0" style="fill: #c6dbef;"></path><path transform="translate(1007.1862872005464,665.9815197499718)" d="M5,0A5,5,0,1,1,-5,0A5,5,0,1,1,5,0" style="fill: #e6550d;"></path></g><g class="mark-text role-mark labels"><text text-anchor="start" transform="translate(552.34,877)" style="font-family: sans-serif; font-size: 11px; font-weight: normal; fill: black;">all</text><text text-anchor="start" transform="translate(117.34,301)" style="font-family: sans-serif; font-size: 11px; font-weight: normal; fill: black;">download_dbs</text><text text-anchor="start" transform="translate(294.34,733)" style="font-family: sans-serif; font-size: 11px; font-weight: normal; fill: black;">generate_barplots</text><text text-anchor="start" transform="translate(744.34,157)" style="font-family: sans-serif; font-size: 11px; font-weight: normal; fill: black;">generate_fasta</text><text text-anchor="start" transform="translate(291.34,445)" style="font-family: sans-serif; font-size: 11px; font-weight: normal; fill: black;">kraken_to_lca</text><text text-anchor="start" transform="translate(340.34,589)" style="font-family: sans-serif; font-size: 11px; font-weight: normal; fill: black;">kraken_to_matrix</text><text text-anchor="start" transform="translate(339.34,805)" style="font-family: sans-serif; font-size: 11px; font-weight: normal; fill: black;">merge_benchmarks</text><text text-anchor="start" transform="translate(261.34,661)" style="font-family: sans-serif; font-size: 11px; font-weight: normal; fill: black;">merge_tables</text><text text-anchor="start" transform="translate(106.34,517)" style="font-family: sans-serif; font-size: 11px; font-weight: normal; fill: black;">minimap_to_lca</text><text text-anchor="start" transform="translate(116.34,589)" style="font-family: sans-serif; font-size: 11px; font-weight: normal; fill: black;">minimap_to_matrix</text><text text-anchor="start" transform="translate(417.34,301)" style="font-family: sans-serif; font-size: 11px; font-weight: normal; fill: black;">parse_itsx</text><text text-anchor="start" transform="translate(106.34,445)" style="font-family: sans-serif; font-size: 11px; font-weight: normal; fill: black;">parse_minimap</text><text text-anchor="start" transform="translate(866.34,85)" style="font-family: sans-serif; font-size: 11px; font-weight: normal; fill: black;">run_chopper</text><text text-anchor="start" transform="translate(541.34,229)" style="font-family: sans-serif; font-size: 11px; font-weight: normal; fill: black;">run_itsx</text><text text-anchor="start" transform="translate(291.34,373)" style="font-family: sans-serif; font-size: 11px; font-weight: normal; fill: black;">run_kraken</text><text text-anchor="start" transform="translate(117.34,373)" style="font-family: sans-serif; font-size: 11px; font-weight: normal; fill: black;">run_minimap</text><text text-anchor="start" transform="translate(869.34,733)" style="font-family: sans-serif; font-size: 11px; font-weight: normal; fill: black;">run_nanostat</text><text text-anchor="start" transform="translate(1012.3,157)" style="font-family: sans-serif; font-size: 11px; font-weight: normal; fill: black;">run_nanostat_filtered</text><text text-anchor="start" transform="translate(1101.3,805)" style="font-family: sans-serif; font-size: 11px; font-weight: normal; fill: black;">run_pistis</text><text text-anchor="start" transform="translate(874.34,445)" style="font-family: sans-serif; font-size: 11px; font-weight: normal; fill: black;">run_pistis_filtered</text><text text-anchor="start" transform="translate(866.34,13)" style="font-family: sans-serif; font-size: 11px; font-weight: normal; fill: black;">run_porechop</text><text text-anchor="start" transform="translate(590.34,445)" style="font-family: sans-serif; font-size: 11px; font-weight: normal; fill: black;">summarize_itsx_length</text><text text-anchor="start" transform="translate(419.34,517)" style="font-family: sans-serif; font-size: 11px; font-weight: normal; fill: black;">summarize_itsx_nr</text><text text-anchor="start" transform="translate(869.34,805)" style="font-family: sans-serif; font-size: 11px; font-weight: normal; fill: black;">summarize_nanostat</text><text text-anchor="start" transform="translate(1012.3,661)" style="font-family: sans-serif; font-size: 11px; font-weight: normal; fill: black;">summarize_nanostat_filtered</text></g></g></g></g></g></svg>